<svg xmlns="http://www.w3.org/2000/svg" version="1.1" width="1000" height="1000">
    <rect width="1000" height="1000" rx="500" ry="500" fill="#ffffff"/>
    <g transform="matrix(9.39187602723644,0,0,9.39187602723644,100.00005874287604,64.13155055968406)">
        <svg xmlns="http://www.w3.org/2000/svg" version="1.1"
             width="85.18" height="85.18">
            <svg id="evJ7fpcz2kY1" xmlns="http://www.w3.org/2000/svg"
                 viewBox="-12.6 -12.6 85.18 85.18" shape-rendering="geometricPrecision"
                 text-rendering="geometricPrecision">
                <g transform="matrix(1.4 0 0 1.4-11.995829-11.994617)">
                    <g transform="translate(.000305 0)">
                        <path d="M39.499,28.979c-3.301,0-6.07,2.301-6.803,5.381-.62-.241-1.365-.381-2.197-.381s-1.577.14-2.197.381c-.734-3.08-3.502-5.381-6.803-5.381-3.859,0-7,3.141-7,7s3.141,7,7,7c3.634,0,6.628-2.785,6.966-6.332.003-.03.017-.055.017-.085.096-.171.813-.583,2.017-.583s1.921.412,2,.5c0,.06.024.111.034.167.338,3.547,3.332,6.333,6.966,6.333c3.859,0,7-3.141,7-7s-3.141-7-7-7Zm-18,12c-2.757,0-5-2.243-5-5s2.243-5,5-5s5,2.243,5,5-2.243,5-5,5Zm18,0c-2.757,0-5-2.243-5-5s2.243-5,5-5s5,2.243,5,5-2.243,5-5,5Z"
                              transform="translate(0 1.428572)" stroke="#000" stroke-width="0.59979"/>
                        <path d="M56.27,18.843c-.563-4.081-2.322-7.604-4.825-9.668-.644-.531-1.116-1.365-1.402-2.479-.827-3.209-3.847-5.451-7.694-5.714-2.143-.146-3.997.518-6.028,1.331-.07.029-.154.028-.277-.05-.416-1.106-1.36-1.867-2.658-2.143-3.017-.637-7.636,1.311-11.353,4.692.006-.891.191-1.687.695-1.938l1.686-.842-1.644-.924c-1.737-.978-5.926-2.038-9.334.944-1.238,1.082-2.138,2.596-2.599,4.377-.095.364-.191.755-.277,1.139-.037.167-.174.217-.231.23-.109.026-.197-.002-.298-.121-.533-.653-1.345-.971-2.17-.857-.796.111-1.462.62-1.781,1.361-1.968,4.567-5.65,16.19,2.2,26.139v16.658c0,2.757,2.243,5,5,5h3v5.060786c0,1.271,1.087934,0,2.358934,0l23.573066.56184c1.271,0,2.068.710159,2.068-.561841L44.281,55.978h3c2.757,0,5-2.243,5-5v-16.604c1.171-1.319,5.223-6.611,3.989-15.531ZM7.916,8.973c.017-.038.065-.151.224-.172.06-.009.215-.012.328.124l.064.078c.554.66,1.423.942,2.269.74.861-.209,1.518-.874,1.711-1.735.082-.362.173-.731.262-1.076.36-1.39,1.045-2.557,1.979-3.373c2.098-1.835,4.416-1.597,5.801-1.195-.5.948-.648,2.279-.419,3.91.074.539.441.98.958,1.151.52.174,1.09.037,1.479-.357c3.806-3.865,8.202-5.457,10.398-4.99.941.199,1.138.72,1.202.891.197.524.596.941,1.122,1.173.555.245,1.201.256,1.77.029c1.864-.747,3.429-1.313,5.148-1.192c2.366.161,5.156,1.353,5.894,4.216.395,1.533,1.09,2.719,2.067,3.524c1.003.827,3.412,3.301,4.117,8.398.768,5.555-.699,9.517-2.01,11.811v-11.949-1.747l-1.507.885c-2.458,1.445-4.604,1.887-6.386,1.314-.278-.089-.535-.2-.774-.327-1.672-.884-2.409-2.508-2.417-2.527l-.001-.001-.217-.502-1.479-5.355C29.295632,8.330949,25.085909,16.901366,24.862,19.93c-6.965-.755-9.986-2.757-10.013-2.774l-.74-.513-.587.683c-.39.453-.795.85-1.201,1.198-1.221,1.045-2.462,1.649-3.387,1.99l-.654.243v.697v9.368C3.378,22.634,5.843,13.785,7.916,8.973ZM42.28,57.674c0,.169.238,3.926626.069,3.926626h-24.070002c-.168,0,.000002-3.757626.000002-3.926626v-1.694h24l.001,5.058785Zm8-6.695c0,1.654-1.346,3-3,3h-3-28-3c-1.654,0-3-1.346-3-3v-14.188-14.661c1.23-.532,2.767-1.422,4.196-2.885c1.407.73,4.807,2.158,10.707,2.729l.565.055.337-.457c.038-.052,2.673-10.38743,12.414-9.06943-.833257.697249,1.350976,7.839998,5.244,8.82243c1.952.638,4.145.403,6.536-.694v15.719v14.629Z"
                              transform="translate(0 2.142858)" stroke="#000" stroke-width="0.59979"/>
                        <path d="M33.499,24.979h3l-1.8,2.4c-.332.441-.242,1.068.2,1.399.18.135.39.2.599.2.305,0,.604-.138.801-.4l3-4c.228-.303.264-.708.095-1.047-.17-.339-.516-.553-.895-.553h-3l1.8-2.4c.332-.441.242-1.068-.2-1.399-.441-.331-1.068-.242-1.399.2l-3,4c-.228.303-.264.708-.095,1.047s.515.553.894.553Z"
                              transform="translate(-2.142858 0.714286)" stroke="#000" stroke-width="0.59979"/>
                        <path d="M37.499,46.979h-14c-.553,0-1,.447-1,1s.447,1,1,1h14c.553,0,1-.447,1-1s-.447-1-1-1Z"
                              transform="translate(0 2.857144)" stroke="#000" stroke-width="0.59979"/>
                    </g>
                </g>
            </svg>
        </svg>
    </g>
</svg>
